<svg width="139" height="29" viewBox="0 0 139 29" fill="none" xmlns="http://www.w3.org/2000/svg">
<path fill-rule="evenodd" clip-rule="evenodd" d="M138.16 17.2575C138.16 18.7625 136.956 20.0669 135.451 20.0669C133.946 20.0669 132.642 18.8629 132.642 17.3579C132.642 15.8528 133.846 14.5485 135.351 14.5485C136.856 14.5485 138.16 15.7525 138.16 17.2575ZM123.913 1.30435C122.408 1.30435 121.103 2.6087 121.204 4.11371C121.204 5.61873 122.508 6.82274 124.013 6.82274C125.518 6.82274 126.722 5.51839 126.722 4.01338C126.722 2.50836 125.518 1.30435 123.913 1.30435ZM116.588 0C115.384 0 114.481 1.00334 114.481 2.20736C114.481 3.41137 115.485 4.31438 116.689 4.31438C117.893 4.31438 118.796 3.31104 118.796 2.10702C118.796 0.90301 117.792 0 116.588 0ZM134.448 9.73244C134.448 7.82609 132.843 6.32107 130.936 6.32107C129.03 6.32107 127.525 7.92642 127.525 9.83278C127.525 11.7391 129.13 13.2441 131.037 13.2441C132.943 13.1438 134.548 11.6388 134.448 9.73244ZM134.448 22.4749C133.344 22.4749 132.542 23.3779 132.542 24.4816C132.542 25.5853 133.445 26.388 134.548 26.388C135.652 26.388 136.555 25.4849 136.455 24.3813C136.455 23.2776 135.552 22.4749 134.448 22.4749ZM129.331 26.087C128.729 26.087 128.227 26.5886 128.227 27.291C128.227 27.893 128.729 28.3946 129.431 28.3946C130.033 28.3946 130.535 27.893 130.535 27.1906C130.535 26.4883 129.933 25.9866 129.331 26.087ZM111.973 4.11371C111.271 4.11371 110.669 4.71572 110.769 5.41806C110.869 6.1204 111.371 6.62207 112.073 6.62207C112.776 6.62207 113.378 6.02007 113.277 5.31773C113.177 4.61538 112.675 4.11371 111.973 4.11371ZM111.572 9.43144C110.97 9.43144 110.568 9.93311 110.568 10.4348C110.568 10.9365 111.07 11.4381 111.572 11.4381C112.073 11.4381 112.575 10.9365 112.575 10.4348C112.575 9.83278 112.174 9.43144 111.572 9.43144ZM121.104 20.1672L125.117 16.1539C125.418 15.8529 125.418 15.4515 125.318 15.0502C125.117 14.6488 124.816 14.4482 124.314 14.4482C124.013 14.4482 123.813 14.5485 123.612 14.7492L119.599 18.7626L115.485 14.6488C115.284 14.4482 114.983 14.3478 114.783 14.3478C114.381 14.3478 113.98 14.6488 113.779 14.9498C113.579 15.3512 113.679 15.7525 113.98 16.0535L118.094 20.1672L114.08 24.1806C113.779 24.4816 113.679 24.883 113.88 25.2843C114.08 25.6856 114.381 25.8863 114.883 25.8863C115.184 25.8863 115.385 25.786 115.585 25.5853L119.599 21.5719L123.612 25.2843C123.813 25.485 124.114 25.5853 124.314 25.5853C124.716 25.5853 125.117 25.3846 125.318 24.9833C125.518 24.582 125.418 24.1806 125.117 23.8796L121.104 20.1672ZM1.20401 14.3478H8.7291C10.2341 14.3478 11.6388 15.7525 11.6388 17.2575V23.1773C11.6388 24.582 10.2341 25.9866 8.7291 25.9866H1.20401C0.501672 25.9866 0 25.3846 0 24.7826V15.6522C0 14.9498 0.501672 14.3478 1.20401 14.3478ZM8.7291 23.8796C9.13043 23.8796 9.53177 23.4783 9.53177 23.0769H9.63211V17.2575C9.63211 16.8562 9.23077 16.4549 8.82943 16.4549H2.10702V23.8796H4.71572H4.91639H8.7291ZM25.7862 14.3478H20.1675C18.4618 14.3478 17.1575 15.6522 17.1575 17.2575V24.9833C17.1575 25.5853 17.6591 25.9866 18.1608 25.9866C18.7628 25.9866 19.1641 25.485 19.1641 24.9833V21.4716H26.6892V24.9833C26.6892 25.5853 27.1909 25.9866 27.6926 25.9866C28.2946 25.9866 28.6959 25.485 28.6959 24.9833V17.2575C28.8966 15.4515 27.2912 14.3478 25.7862 14.3478ZM26.7896 19.4649H19.2645V17.2575C19.2645 16.7559 19.7662 16.4549 20.2678 16.4549H25.8866C26.3882 16.4549 26.8899 16.7559 26.8899 17.2575V19.4649H26.7896ZM34.3143 14.3478H42.4414C43.0434 14.3478 43.545 14.8495 43.3444 15.4515C43.3444 15.9532 42.943 16.4549 42.341 16.4549H39.331V24.9833C39.331 25.485 38.9297 25.9866 38.3277 25.9866C37.826 25.9866 37.3243 25.5853 37.3243 24.9833V16.3545H34.3143C33.8126 16.3545 33.3109 15.9532 33.3109 15.3512C33.3109 14.8495 33.7123 14.3478 34.3143 14.3478ZM56.9902 14.3478H51.3714C49.6658 14.3478 48.3614 15.6522 48.3614 17.2575V24.9833C48.3614 25.5853 48.7627 25.9866 49.3647 25.9866C49.9668 25.9866 50.3681 25.485 50.3681 24.9833V21.4716H57.8932V24.9833C57.8932 25.5853 58.3948 25.9866 58.8965 25.9866C59.4985 25.9866 59.8999 25.485 59.8999 24.9833V17.2575C60.0002 15.4515 58.4952 14.3478 56.9902 14.3478ZM57.9935 19.4649H50.4684V17.2575C50.4684 16.7559 50.9701 16.4549 51.4718 16.4549H57.0905C57.5922 16.4549 58.0938 16.7559 58.0938 17.2575V19.4649H57.9935ZM68.3277 19.1639H74.5485C76.3545 19.1639 77.3578 20.8696 77.3578 22.5753C77.3578 24.1806 76.5552 25.9866 74.5485 25.9866H66.7224C66.2207 25.9866 65.719 25.5853 65.719 24.9833C65.719 24.3813 66.1204 23.9799 66.7224 23.9799H74.5485C75.1505 23.9799 75.3511 23.1773 75.3511 22.6756C75.3511 22.0736 75.1505 21.2709 74.5485 21.2709H68.4281C66.4214 21.2709 65.5184 19.5652 65.5184 17.8595C65.5184 16.1538 66.4214 14.4482 68.3277 14.4482H75.1505C75.6521 14.4482 76.1538 14.8495 76.1538 15.4515C76.1538 15.9532 75.7525 16.4549 75.1505 16.4549H68.3277C67.7257 16.4549 67.525 17.2575 67.525 17.7592C67.525 18.3612 67.7257 19.1639 68.3277 19.1639ZM90.903 14.3478H82.0736C81.4716 14.3478 81.0702 14.8495 81.0702 15.3512C81.0702 15.9532 81.5719 16.3545 82.0736 16.3545H85.7859V20.1672V24.883C85.7859 25.485 86.2876 25.8863 86.7893 25.8863C87.3913 25.8863 87.7926 25.3846 87.7926 24.883V16.3545H90.8027C91.4047 16.3545 91.806 15.8529 91.806 15.3512C92.0067 14.8495 91.505 14.3478 90.903 14.3478ZM99.8329 14.3478H105.452C106.856 14.3478 108.462 15.4515 108.361 17.2575V24.9833C108.361 25.485 107.96 25.9866 107.358 25.9866C106.856 25.9866 106.355 25.5853 106.355 24.9833V21.4716H98.8295V24.9833C98.8295 25.485 98.4282 25.9866 97.8262 25.9866C97.3245 25.9866 96.8228 25.5853 96.8228 24.9833V17.2575C96.8228 15.6522 98.1272 14.3478 99.8329 14.3478ZM98.8295 19.4649H106.355H106.455V17.2575C106.455 16.7559 105.953 16.4549 105.452 16.4549H99.8329C99.3312 16.4549 98.8295 16.7559 98.8295 17.2575V19.4649Z" fill="white"/>
</svg>